<svg width="25" height="25" viewBox="0 0 25 25" fill="none" xmlns="http://www.w3.org/2000/svg">
<g clip-path="url(#clip0_2113_2)">
<path d="M4.74948 6.88839H6.74948V18.8884H4.74948V6.88839ZM7.74948 6.88839H8.74948V18.8884H7.74948V6.88839ZM9.74948 6.88839H12.7495V18.8884H9.74948V6.88839ZM13.7495 6.88839H14.7495V18.8884H13.7495V6.88839ZM16.7495 6.88839H18.7495V18.8884H16.7495V6.88839ZM19.7495 6.88839H20.7495V18.8884H19.7495V6.88839ZM2.74948 4.88839V8.88839H0.749481V4.88839C0.749481 4.35796 0.960195 3.84925 1.33527 3.47418C1.71034 3.0991 2.21905 2.88839 2.74948 2.88839H6.74948V4.88839H2.74948ZM22.7495 2.88839C23.2799 2.88839 23.7886 3.0991 24.1637 3.47418C24.5388 3.84925 24.7495 4.35796 24.7495 4.88839V8.88839H22.7495V4.88839H18.7495V2.88839H22.7495ZM2.74948 16.8884V20.8884H6.74948V22.8884H2.74948C2.21905 22.8884 1.71034 22.6777 1.33527 22.3026C0.960195 21.9275 0.749481 21.4188 0.749481 20.8884V16.8884H2.74948ZM22.7495 20.8884V16.8884H24.7495V20.8884C24.7495 21.4188 24.5388 21.9275 24.1637 22.3026C23.7886 22.6777 23.2799 22.8884 22.7495 22.8884H18.7495V20.8884H22.7495Z" fill="white"/>
</g>
<defs>
<clipPath id="clip0_2113_2">
<rect width="24" height="24" fill="white" transform="translate(0.749481 0.88839)"/>
</clipPath>
</defs>
</svg>
